<mxfile host="app.diagrams.net" agent="Mozilla/5.0 (Windows NT 10.0; Win64; x64; rv:135.0) Gecko/20100101 Firefox/135.0" version="26.0.16">
  <diagram name="Sayfa -1" id="yfLW-VugRBDgH6hGD0F2">
    <mxGraphModel dx="1500" dy="809" grid="1" gridSize="10" guides="1" tooltips="1" connect="1" arrows="1" fold="1" page="1" pageScale="1" pageWidth="827" pageHeight="1169" math="0" shadow="0">
      <root>
        <mxCell id="0" />
        <mxCell id="1" parent="0" />
        <mxCell id="I-xNAW77gnYaju2xaBtG-1" value="Uçuş alanına girecek kişiler:&lt;div&gt;A:&lt;/div&gt;&lt;div&gt;B:&lt;/div&gt;&lt;div&gt;C:&lt;/div&gt;&lt;div&gt;D:&lt;/div&gt;" style="whiteSpace=wrap;html=1;aspect=fixed;" parent="1" vertex="1">
          <mxGeometry x="207.5" y="20" width="120" height="120" as="geometry" />
        </mxCell>
        <mxCell id="fFdb8lj0eYezfeGpytW5-40" style="edgeStyle=orthogonalEdgeStyle;rounded=0;orthogonalLoop=1;jettySize=auto;html=1;entryX=0.5;entryY=0;entryDx=0;entryDy=0;" edge="1" parent="1" source="I-xNAW77gnYaju2xaBtG-2" target="fFdb8lj0eYezfeGpytW5-39">
          <mxGeometry relative="1" as="geometry" />
        </mxCell>
        <mxCell id="I-xNAW77gnYaju2xaBtG-2" value="Başlangıç" style="rounded=1;whiteSpace=wrap;html=1;" parent="1" vertex="1">
          <mxGeometry x="37.5" y="20" width="120" height="60" as="geometry" />
        </mxCell>
        <mxCell id="I-xNAW77gnYaju2xaBtG-3" value="Bitiş" style="rounded=1;whiteSpace=wrap;html=1;" parent="1" vertex="1">
          <mxGeometry x="657.5" y="138.75" width="120" height="60" as="geometry" />
        </mxCell>
        <mxCell id="I-xNAW77gnYaju2xaBtG-10" style="edgeStyle=orthogonalEdgeStyle;rounded=0;orthogonalLoop=1;jettySize=auto;html=1;exitX=0.5;exitY=1;exitDx=0;exitDy=0;entryX=0.5;entryY=0;entryDx=0;entryDy=0;" parent="1" source="I-xNAW77gnYaju2xaBtG-4" target="I-xNAW77gnYaju2xaBtG-9" edge="1">
          <mxGeometry relative="1" as="geometry" />
        </mxCell>
        <mxCell id="I-xNAW77gnYaju2xaBtG-4" value="İHA muhafaza kutusuyla beraber uçuş alanına taşınır" style="rounded=0;whiteSpace=wrap;html=1;" parent="1" vertex="1">
          <mxGeometry x="22.5" y="250" width="150" height="90" as="geometry" />
        </mxCell>
        <mxCell id="fFdb8lj0eYezfeGpytW5-51" style="edgeStyle=orthogonalEdgeStyle;rounded=0;orthogonalLoop=1;jettySize=auto;html=1;entryX=0.5;entryY=0;entryDx=0;entryDy=0;" edge="1" parent="1" source="I-xNAW77gnYaju2xaBtG-6" target="fFdb8lj0eYezfeGpytW5-50">
          <mxGeometry relative="1" as="geometry" />
        </mxCell>
        <mxCell id="I-xNAW77gnYaju2xaBtG-6" value="Yükler İHA&#39;ya yüklenir" style="rounded=0;whiteSpace=wrap;html=1;" parent="1" vertex="1">
          <mxGeometry x="20" y="450" width="155" height="50" as="geometry" />
        </mxCell>
        <mxCell id="I-xNAW77gnYaju2xaBtG-11" style="edgeStyle=orthogonalEdgeStyle;rounded=0;orthogonalLoop=1;jettySize=auto;html=1;exitX=0.5;exitY=1;exitDx=0;exitDy=0;entryX=0.5;entryY=0;entryDx=0;entryDy=0;" parent="1" source="I-xNAW77gnYaju2xaBtG-9" target="I-xNAW77gnYaju2xaBtG-6" edge="1">
          <mxGeometry relative="1" as="geometry" />
        </mxCell>
        <mxCell id="I-xNAW77gnYaju2xaBtG-9" value="İHA&#39;ya gereken koordinatlar yüklenir" style="rounded=0;whiteSpace=wrap;html=1;" parent="1" vertex="1">
          <mxGeometry x="37.5" y="370" width="120" height="60" as="geometry" />
        </mxCell>
        <mxCell id="I-xNAW77gnYaju2xaBtG-14" style="edgeStyle=orthogonalEdgeStyle;rounded=0;orthogonalLoop=1;jettySize=auto;html=1;exitX=0;exitY=0.5;exitDx=0;exitDy=0;entryX=1;entryY=0.5;entryDx=0;entryDy=0;" parent="1" source="I-xNAW77gnYaju2xaBtG-13" target="I-xNAW77gnYaju2xaBtG-9" edge="1">
          <mxGeometry relative="1" as="geometry" />
        </mxCell>
        <mxCell id="I-xNAW77gnYaju2xaBtG-13" value="D" style="ellipse;whiteSpace=wrap;html=1;aspect=fixed;" parent="1" vertex="1">
          <mxGeometry x="242.5" y="375" width="50" height="50" as="geometry" />
        </mxCell>
        <mxCell id="I-xNAW77gnYaju2xaBtG-16" style="edgeStyle=orthogonalEdgeStyle;rounded=0;orthogonalLoop=1;jettySize=auto;html=1;exitX=0;exitY=0.5;exitDx=0;exitDy=0;entryX=1;entryY=0.5;entryDx=0;entryDy=0;" parent="1" source="I-xNAW77gnYaju2xaBtG-15" target="I-xNAW77gnYaju2xaBtG-4" edge="1">
          <mxGeometry relative="1" as="geometry" />
        </mxCell>
        <mxCell id="I-xNAW77gnYaju2xaBtG-15" value="A, B, C" style="ellipse;whiteSpace=wrap;html=1;aspect=fixed;" parent="1" vertex="1">
          <mxGeometry x="240" y="267.5" width="55" height="55" as="geometry" />
        </mxCell>
        <mxCell id="fFdb8lj0eYezfeGpytW5-8" style="edgeStyle=orthogonalEdgeStyle;rounded=0;orthogonalLoop=1;jettySize=auto;html=1;entryX=0;entryY=0.5;entryDx=0;entryDy=0;" edge="1" parent="1" source="I-xNAW77gnYaju2xaBtG-18" target="fFdb8lj0eYezfeGpytW5-1">
          <mxGeometry relative="1" as="geometry" />
        </mxCell>
        <mxCell id="I-xNAW77gnYaju2xaBtG-18" value="İHA&#39;nın son kontrolü yapılır" style="rounded=0;whiteSpace=wrap;html=1;" parent="1" vertex="1">
          <mxGeometry x="180" y="518.75" width="120" height="60" as="geometry" />
        </mxCell>
        <mxCell id="fFdb8lj0eYezfeGpytW5-7" style="edgeStyle=orthogonalEdgeStyle;rounded=0;orthogonalLoop=1;jettySize=auto;html=1;entryX=1;entryY=0.5;entryDx=0;entryDy=0;" edge="1" parent="1" source="I-xNAW77gnYaju2xaBtG-20" target="I-xNAW77gnYaju2xaBtG-6">
          <mxGeometry relative="1" as="geometry" />
        </mxCell>
        <mxCell id="I-xNAW77gnYaju2xaBtG-20" value="A, B, C, D" style="ellipse;whiteSpace=wrap;html=1;aspect=fixed;" parent="1" vertex="1">
          <mxGeometry x="235" y="442.5" width="65" height="65" as="geometry" />
        </mxCell>
        <mxCell id="fFdb8lj0eYezfeGpytW5-13" style="edgeStyle=orthogonalEdgeStyle;rounded=0;orthogonalLoop=1;jettySize=auto;html=1;entryX=0;entryY=0.5;entryDx=0;entryDy=0;" edge="1" parent="1" source="fFdb8lj0eYezfeGpytW5-1" target="fFdb8lj0eYezfeGpytW5-10">
          <mxGeometry relative="1" as="geometry" />
        </mxCell>
        <mxCell id="fFdb8lj0eYezfeGpytW5-1" value="Uçak tam otomatik kalkış yapacak şekilde başlatılır" style="rounded=0;whiteSpace=wrap;html=1;" vertex="1" parent="1">
          <mxGeometry x="327.5" y="518.75" width="120" height="60" as="geometry" />
        </mxCell>
        <mxCell id="fFdb8lj0eYezfeGpytW5-9" style="edgeStyle=orthogonalEdgeStyle;rounded=0;orthogonalLoop=1;jettySize=auto;html=1;entryX=0.5;entryY=0;entryDx=0;entryDy=0;" edge="1" parent="1" source="fFdb8lj0eYezfeGpytW5-3" target="fFdb8lj0eYezfeGpytW5-1">
          <mxGeometry relative="1" as="geometry" />
        </mxCell>
        <mxCell id="fFdb8lj0eYezfeGpytW5-3" value="D" style="ellipse;whiteSpace=wrap;html=1;aspect=fixed;" vertex="1" parent="1">
          <mxGeometry x="362.5" y="431.25" width="50" height="50" as="geometry" />
        </mxCell>
        <mxCell id="fFdb8lj0eYezfeGpytW5-16" style="edgeStyle=orthogonalEdgeStyle;rounded=0;orthogonalLoop=1;jettySize=auto;html=1;entryX=0;entryY=0.5;entryDx=0;entryDy=0;" edge="1" parent="1" source="fFdb8lj0eYezfeGpytW5-10" target="fFdb8lj0eYezfeGpytW5-15">
          <mxGeometry relative="1" as="geometry" />
        </mxCell>
        <mxCell id="fFdb8lj0eYezfeGpytW5-10" value="Uçuş kalkış için desteklenir" style="rounded=0;whiteSpace=wrap;html=1;" vertex="1" parent="1">
          <mxGeometry x="477.5" y="518.75" width="120" height="60" as="geometry" />
        </mxCell>
        <mxCell id="fFdb8lj0eYezfeGpytW5-12" style="edgeStyle=orthogonalEdgeStyle;rounded=0;orthogonalLoop=1;jettySize=auto;html=1;entryX=0.5;entryY=0;entryDx=0;entryDy=0;" edge="1" parent="1" source="fFdb8lj0eYezfeGpytW5-11" target="fFdb8lj0eYezfeGpytW5-10">
          <mxGeometry relative="1" as="geometry" />
        </mxCell>
        <mxCell id="fFdb8lj0eYezfeGpytW5-11" value="A, B" style="ellipse;whiteSpace=wrap;html=1;aspect=fixed;" vertex="1" parent="1">
          <mxGeometry x="512.5" y="431.25" width="50" height="50" as="geometry" />
        </mxCell>
        <mxCell id="fFdb8lj0eYezfeGpytW5-20" value="Evet" style="edgeStyle=orthogonalEdgeStyle;rounded=0;orthogonalLoop=1;jettySize=auto;html=1;entryX=0.5;entryY=1;entryDx=0;entryDy=0;" edge="1" parent="1" source="fFdb8lj0eYezfeGpytW5-15" target="fFdb8lj0eYezfeGpytW5-17">
          <mxGeometry relative="1" as="geometry" />
        </mxCell>
        <mxCell id="fFdb8lj0eYezfeGpytW5-26" value="Hayır" style="edgeStyle=orthogonalEdgeStyle;rounded=0;orthogonalLoop=1;jettySize=auto;html=1;entryX=0.5;entryY=0;entryDx=0;entryDy=0;" edge="1" parent="1" source="fFdb8lj0eYezfeGpytW5-15" target="fFdb8lj0eYezfeGpytW5-27">
          <mxGeometry relative="1" as="geometry">
            <mxPoint x="717.5" y="758.75" as="targetPoint" />
          </mxGeometry>
        </mxCell>
        <mxCell id="fFdb8lj0eYezfeGpytW5-15" value="Uçuş sırasında hata çıktı mı?" style="rhombus;whiteSpace=wrap;html=1;" vertex="1" parent="1">
          <mxGeometry x="627.5" y="457.5" width="180" height="182.5" as="geometry" />
        </mxCell>
        <mxCell id="fFdb8lj0eYezfeGpytW5-22" style="edgeStyle=orthogonalEdgeStyle;rounded=0;orthogonalLoop=1;jettySize=auto;html=1;entryX=0.5;entryY=1;entryDx=0;entryDy=0;" edge="1" parent="1" source="fFdb8lj0eYezfeGpytW5-17" target="fFdb8lj0eYezfeGpytW5-21">
          <mxGeometry relative="1" as="geometry" />
        </mxCell>
        <mxCell id="fFdb8lj0eYezfeGpytW5-17" value="Uçak fail safe moduna alınıp güvenli bir şekilde inişi gerçekleştirilir" style="rounded=0;whiteSpace=wrap;html=1;" vertex="1" parent="1">
          <mxGeometry x="657.5" y="348.75" width="120" height="60" as="geometry" />
        </mxCell>
        <mxCell id="fFdb8lj0eYezfeGpytW5-24" style="edgeStyle=orthogonalEdgeStyle;rounded=0;orthogonalLoop=1;jettySize=auto;html=1;entryX=0.5;entryY=1;entryDx=0;entryDy=0;" edge="1" parent="1" source="fFdb8lj0eYezfeGpytW5-21" target="I-xNAW77gnYaju2xaBtG-3">
          <mxGeometry relative="1" as="geometry" />
        </mxCell>
        <mxCell id="fFdb8lj0eYezfeGpytW5-21" value="Uçak muhafaza edilir" style="rounded=0;whiteSpace=wrap;html=1;" vertex="1" parent="1">
          <mxGeometry x="657.5" y="233.75" width="120" height="60" as="geometry" />
        </mxCell>
        <mxCell id="fFdb8lj0eYezfeGpytW5-25" style="edgeStyle=orthogonalEdgeStyle;rounded=0;orthogonalLoop=1;jettySize=auto;html=1;entryX=0;entryY=0.5;entryDx=0;entryDy=0;" edge="1" parent="1" source="fFdb8lj0eYezfeGpytW5-23" target="fFdb8lj0eYezfeGpytW5-21">
          <mxGeometry relative="1" as="geometry" />
        </mxCell>
        <mxCell id="fFdb8lj0eYezfeGpytW5-23" value="A, B, C" style="ellipse;whiteSpace=wrap;html=1;aspect=fixed;" vertex="1" parent="1">
          <mxGeometry x="540" y="236.25" width="55" height="55" as="geometry" />
        </mxCell>
        <mxCell id="fFdb8lj0eYezfeGpytW5-29" style="edgeStyle=orthogonalEdgeStyle;rounded=0;orthogonalLoop=1;jettySize=auto;html=1;entryX=1;entryY=0.5;entryDx=0;entryDy=0;" edge="1" parent="1" source="fFdb8lj0eYezfeGpytW5-27" target="fFdb8lj0eYezfeGpytW5-28">
          <mxGeometry relative="1" as="geometry" />
        </mxCell>
        <mxCell id="fFdb8lj0eYezfeGpytW5-27" value="Uçağın rotasını tamamlaması beklenir" style="rounded=0;whiteSpace=wrap;html=1;" vertex="1" parent="1">
          <mxGeometry x="657.5" y="688.75" width="120" height="60" as="geometry" />
        </mxCell>
        <mxCell id="fFdb8lj0eYezfeGpytW5-31" style="edgeStyle=orthogonalEdgeStyle;rounded=0;orthogonalLoop=1;jettySize=auto;html=1;" edge="1" parent="1" source="fFdb8lj0eYezfeGpytW5-28" target="fFdb8lj0eYezfeGpytW5-30">
          <mxGeometry relative="1" as="geometry" />
        </mxCell>
        <mxCell id="fFdb8lj0eYezfeGpytW5-28" value="Uçak iniş yapmaya başlar" style="rounded=0;whiteSpace=wrap;html=1;" vertex="1" parent="1">
          <mxGeometry x="477.5" y="688.75" width="120" height="60" as="geometry" />
        </mxCell>
        <mxCell id="fFdb8lj0eYezfeGpytW5-36" style="edgeStyle=orthogonalEdgeStyle;rounded=0;orthogonalLoop=1;jettySize=auto;html=1;entryX=1;entryY=0.5;entryDx=0;entryDy=0;" edge="1" parent="1" source="fFdb8lj0eYezfeGpytW5-30" target="fFdb8lj0eYezfeGpytW5-34">
          <mxGeometry relative="1" as="geometry" />
        </mxCell>
        <mxCell id="fFdb8lj0eYezfeGpytW5-30" value="Uçak muhafaza edilir" style="rounded=0;whiteSpace=wrap;html=1;" vertex="1" parent="1">
          <mxGeometry x="327.5" y="688.75" width="120" height="60" as="geometry" />
        </mxCell>
        <mxCell id="fFdb8lj0eYezfeGpytW5-33" style="edgeStyle=orthogonalEdgeStyle;rounded=0;orthogonalLoop=1;jettySize=auto;html=1;entryX=0.5;entryY=0;entryDx=0;entryDy=0;" edge="1" parent="1" source="fFdb8lj0eYezfeGpytW5-32" target="fFdb8lj0eYezfeGpytW5-30">
          <mxGeometry relative="1" as="geometry" />
        </mxCell>
        <mxCell id="fFdb8lj0eYezfeGpytW5-32" value="A, B, C" style="ellipse;whiteSpace=wrap;html=1;aspect=fixed;" vertex="1" parent="1">
          <mxGeometry x="360" y="598.75" width="55" height="55" as="geometry" />
        </mxCell>
        <mxCell id="fFdb8lj0eYezfeGpytW5-34" value="Bitiş" style="rounded=1;whiteSpace=wrap;html=1;" vertex="1" parent="1">
          <mxGeometry x="155" y="688.75" width="120" height="60" as="geometry" />
        </mxCell>
        <mxCell id="fFdb8lj0eYezfeGpytW5-43" style="edgeStyle=orthogonalEdgeStyle;rounded=0;orthogonalLoop=1;jettySize=auto;html=1;entryX=1;entryY=0.5;entryDx=0;entryDy=0;" edge="1" parent="1" source="fFdb8lj0eYezfeGpytW5-37" target="fFdb8lj0eYezfeGpytW5-39">
          <mxGeometry relative="1" as="geometry" />
        </mxCell>
        <mxCell id="fFdb8lj0eYezfeGpytW5-37" value="D" style="ellipse;whiteSpace=wrap;html=1;aspect=fixed;" vertex="1" parent="1">
          <mxGeometry x="242.5" y="172.5" width="50" height="50" as="geometry" />
        </mxCell>
        <mxCell id="fFdb8lj0eYezfeGpytW5-42" style="edgeStyle=orthogonalEdgeStyle;rounded=0;orthogonalLoop=1;jettySize=auto;html=1;entryX=0.5;entryY=0;entryDx=0;entryDy=0;" edge="1" parent="1" source="fFdb8lj0eYezfeGpytW5-39" target="I-xNAW77gnYaju2xaBtG-4">
          <mxGeometry relative="1" as="geometry" />
        </mxCell>
        <mxCell id="fFdb8lj0eYezfeGpytW5-39" value="Radyo ve bilgisayar istasyonuna geçilir" style="rounded=0;whiteSpace=wrap;html=1;" vertex="1" parent="1">
          <mxGeometry x="37.5" y="167.5" width="120" height="60" as="geometry" />
        </mxCell>
        <mxCell id="fFdb8lj0eYezfeGpytW5-52" style="edgeStyle=orthogonalEdgeStyle;rounded=0;orthogonalLoop=1;jettySize=auto;html=1;entryX=0;entryY=0.5;entryDx=0;entryDy=0;" edge="1" parent="1" source="fFdb8lj0eYezfeGpytW5-50" target="I-xNAW77gnYaju2xaBtG-18">
          <mxGeometry relative="1" as="geometry" />
        </mxCell>
        <mxCell id="fFdb8lj0eYezfeGpytW5-50" value="Fail safe aktif hale getirilir" style="rounded=0;whiteSpace=wrap;html=1;" vertex="1" parent="1">
          <mxGeometry x="37.5" y="518.75" width="120" height="60" as="geometry" />
        </mxCell>
        <mxCell id="fFdb8lj0eYezfeGpytW5-54" style="edgeStyle=orthogonalEdgeStyle;rounded=0;orthogonalLoop=1;jettySize=auto;html=1;entryX=0.5;entryY=1;entryDx=0;entryDy=0;" edge="1" parent="1" source="fFdb8lj0eYezfeGpytW5-53" target="fFdb8lj0eYezfeGpytW5-50">
          <mxGeometry relative="1" as="geometry" />
        </mxCell>
        <mxCell id="fFdb8lj0eYezfeGpytW5-53" value="D" style="ellipse;whiteSpace=wrap;html=1;aspect=fixed;" vertex="1" parent="1">
          <mxGeometry x="72.5" y="610" width="50" height="50" as="geometry" />
        </mxCell>
      </root>
    </mxGraphModel>
  </diagram>
</mxfile>
